<svg width="92" height="34" viewBox="0 0 92 34" fill="none" xmlns="http://www.w3.org/2000/svg">
<path d="M35.2673 7.67066C36.1631 7.35719 36.6457 6.65848 36.6457 5.26484V2.94967C36.6457 0.993289 35.6572 0.0264302 33.6571 0.0264302H29.68V15.7643H33.7034C35.7036 15.7643 36.6921 14.7975 36.6921 12.8411V9.94051C36.6921 8.66018 36.2326 7.98413 35.2673 7.67066ZM32.1165 2.13766H33.2864C33.7266 2.06968 34.1398 2.36804 34.2054 2.7986C34.217 2.87791 34.217 2.95722 34.2054 3.03653V5.73694C34.2826 6.20904 33.9544 6.65093 33.4756 6.72646C33.383 6.74157 33.2864 6.74157 33.1938 6.72646H32.1126V2.13766H32.1165ZM34.2556 12.7505C34.3251 13.181 34.0201 13.5851 33.5799 13.6493C33.4988 13.6607 33.4177 13.6607 33.3366 13.6493H32.1203V8.76971H33.2478C33.7305 8.69417 34.1822 9.0152 34.2595 9.48352C34.2749 9.57417 34.2749 9.66859 34.2595 9.75923V12.7505H34.2556ZM44.5618 8.34293C45.4576 7.98414 45.9635 7.30809 45.9635 5.91445V2.94589C45.9635 0.989513 44.975 0.0226526 42.9748 0.0226526H38.9282V15.7606H41.3879V9.44198H42.4922C43.2065 9.44198 43.527 9.75545 43.527 10.4542V15.7606H45.9866V10.4088C45.9866 9.21537 45.5735 8.61108 44.5618 8.33915V8.34293ZM43.5038 6.39033C43.5038 7.04371 43.1834 7.35719 42.4922 7.35719H41.3879V2.1641H42.5849C43.025 2.09611 43.4382 2.39448 43.5038 2.82503C43.5154 2.90435 43.5154 2.98744 43.5038 3.06675V6.3941V6.39033ZM52.9799 15.7643H55.4164L53.0957 0.00376892H49.833L47.5316 15.7643H49.8059L50.1032 13.2905H52.6555L52.976 15.7643H52.9799ZM50.3813 11.1566L51.3929 3.2858L52.3814 11.1566H50.3813ZM77.0868 12.8411V9.94051C77.0868 8.66018 76.6273 7.98413 75.662 7.67066C76.5578 7.35719 77.0405 6.65848 77.0405 5.26484V2.94967C77.0405 0.993289 76.052 0.0264302 74.0518 0.0264302H70.0747V15.7643H74.0982C76.0983 15.7643 77.0868 14.7975 77.0868 12.8411ZM72.5112 2.13766H73.685C74.1252 2.06968 74.5383 2.36804 74.604 2.7986C74.6156 2.87791 74.6156 2.961 74.604 3.04031V5.74072C74.6812 6.21282 74.353 6.6547 73.8742 6.73024C73.7815 6.74535 73.685 6.74535 73.5923 6.73024H72.5112V2.14143V2.13766ZM72.5112 13.6493V8.76971H73.6387C74.1213 8.69417 74.5731 9.0152 74.6503 9.48352C74.6658 9.57417 74.6658 9.66859 74.6503 9.75923V12.7505C74.7198 13.181 74.4148 13.5851 73.9746 13.6493C73.8935 13.6607 73.8124 13.6607 73.7313 13.6493H72.515H72.5112ZM79.323 0.0264302V15.7643H85.0569V13.5813H81.7826V0.0226526H79.323V0.0264302ZM91.9537 2.20564V0.0264302H86.4823V15.7643H92V13.5813H88.9419V8.83769H91.8378V6.65848H88.9419V2.20564H91.9537ZM67.7459 15.7643V0.0264302H64.0893L62.5254 11.1113L60.9616 0.0264302H57.2857V15.7643H59.4017V3.91653L61.1701 15.7681H63.5603L65.3287 3.96185V15.7681H67.742L67.7459 15.7643Z" fill="#6E224E"/>
<path d="M53.393 33.875V28.5233C53.393 27.3298 52.9799 26.7218 51.9682 26.4536C52.8641 26.0948 53.3699 25.4188 53.3699 24.0251V21.0566C53.3699 19.1002 52.3814 18.1333 50.3813 18.1333H46.3346V33.8712H48.7943V27.5527H49.8986C50.6091 27.5527 50.9334 27.8699 50.9334 28.5648V33.8712H53.393V33.875ZM50.9103 24.501C50.9103 25.1544 50.5898 25.4679 49.8986 25.4679H48.7943V20.2748H49.9913C50.4315 20.2068 50.8446 20.5052 50.9103 20.9357C50.9218 21.015 50.9218 21.0981 50.9103 21.1774V24.5048V24.501ZM69.5457 18.1371L68.0978 24.7692L66.6961 18.1371H64.167L66.8119 28.4817V33.8788H69.2716V28.3722L71.9166 18.1409H69.5496L69.5457 18.1371ZM36.6921 30.9518V28.0512C36.6921 26.7709 36.2326 26.0948 35.2673 25.7813C36.1631 25.4679 36.6457 24.7692 36.6457 23.3755V21.0603C36.6457 19.104 35.6572 18.1371 33.6571 18.1371H29.68V33.875H33.7073C35.7036 33.875 36.6921 32.9082 36.6921 30.9518ZM32.1165 20.2483H33.2903C33.7305 20.1804 34.1436 20.4787 34.2093 20.9093C34.2209 20.9886 34.2209 21.0717 34.2093 21.151V23.8514C34.2865 24.3235 33.9583 24.7654 33.4795 24.8409C33.3868 24.856 33.2903 24.856 33.1976 24.8409H32.1165V20.2521V20.2483ZM32.1165 31.76V26.8804H33.2439C33.7266 26.8049 34.1784 27.1259 34.2556 27.5942C34.271 27.6848 34.271 27.7793 34.2556 27.8699V30.8611C34.3251 31.2917 34.0201 31.6958 33.5799 31.76C33.4988 31.7713 33.4177 31.7713 33.3366 31.76H32.1203H32.1165ZM61.3092 26.4536C62.205 26.0948 62.7108 25.4188 62.7108 24.0251V21.0566C62.7108 19.1002 61.7223 18.1333 59.7222 18.1333H55.6756V33.8712H58.1352V27.5527H59.2395C59.9538 27.5527 60.2743 27.8699 60.2743 28.5648V33.8712H62.734V28.5195C62.734 27.326 62.3208 26.7218 61.3092 26.4498V26.4536ZM60.2511 24.4972C60.2511 25.1506 59.9307 25.4641 59.2395 25.4641H58.1352V20.271H59.3322C59.7724 20.203 60.1855 20.5014 60.2511 20.9319C60.2627 21.0112 60.2627 21.0943 60.2511 21.1737V24.501V24.4972ZM44.168 31.6958H41.1099V26.9521H44.0058V24.7692H41.1099V20.3163H44.1216V18.1333H38.6502V33.8712H44.168V31.6882V31.6958Z" fill="#6E224E"/>
<path d="M21.553 1.39231C12.5906 1.03293 13.3714 8.61055 13.3714 8.61055C21.553 9.69307 21.553 1.39231 21.553 1.39231ZM24.2786 22.2713C24.449 20.8645 24.3259 19.4357 23.9095 18.0727C23.4458 16.495 22.4142 15.11 20.9899 14.1415C19.8968 13.4271 18.6334 12.9625 17.3084 12.7916C16.4992 12.682 15.6806 12.6601 14.8667 12.7171C13.7405 12.7522 12.6379 13.0107 11.63 13.4665C10.7499 13.8654 9.93598 14.3781 9.21199 14.9873C9.17413 15.018 9.14574 15.0837 9.07949 15.0574C9.01325 15.0311 9.0511 14.9654 9.04637 14.9172C9.04637 14.8778 9.04637 14.8427 9.04637 14.8032C9.06057 12.1605 9.07949 9.51338 9.09369 6.87063C9.09369 6.43237 9.10789 5.9941 9.10789 5.56022C9.11735 3.89042 9.12208 2.22501 9.12681 0.555218C9.14574 0.331702 8.98485 0.125717 8.74825 0.0731253C8.33657 -0.0189106 7.90596 -0.0232933 7.48955 0.0555946C7.25295 0.0994212 7.03528 0.204605 6.86966 0.366764C5.96585 1.16003 4.97686 1.87002 3.92636 2.48797C2.82854 3.11469 1.67394 3.65376 0.476747 4.10517C0.192828 4.19283 0.00354899 4.44702 0.00354899 4.72751C-0.001183 5.03868 -0.001183 5.34985 0.00354899 5.66102C-0.0201109 5.93274 0.1739 6.17817 0.457819 6.24391C0.656563 6.30527 0.869502 6.33595 1.07298 6.39292C2.44525 6.68218 3.40585 7.83044 3.36326 9.13209C3.37272 9.78948 3.37272 10.4513 3.37272 11.113V19.1815H3.40585V28.8278C3.40585 29.4063 3.47209 29.9804 3.61405 30.5414C3.80333 31.3434 4.2576 32.0753 4.91535 32.6319C5.86648 33.3989 7.05894 33.8634 8.31764 33.9511C9.84608 34.0694 11.3887 33.973 12.8887 33.6618C13.9866 33.4559 15.056 33.1359 16.0781 32.7108C18.3684 31.7992 20.3463 30.3354 21.8133 28.4728C22.7455 27.2851 23.4316 25.9527 23.8527 24.5415C24.061 23.8009 24.2029 23.0427 24.2739 22.2801L24.2786 22.2713ZM19.2201 25.2647C18.8605 27.3026 17.4314 29.0381 15.4062 29.8971C14.2894 30.4143 13.0307 30.6027 11.7957 30.4318C10.5511 30.3135 9.51957 29.4764 9.24511 28.3413C9.1694 28.0433 9.13628 27.7409 9.14101 27.4385C9.14574 26.093 9.14101 24.7519 9.14101 23.4064C9.14101 21.9864 9.14101 20.5664 9.14101 19.1465C9.13628 18.9887 9.20726 18.8397 9.33502 18.7345C10.0496 18.099 10.9534 17.6695 11.9281 17.5073C13.6884 17.1567 15.5245 17.5512 16.944 18.5767C17.9283 19.2692 18.6476 20.229 19.0025 21.3246C19.4378 22.6 19.5183 23.9586 19.2391 25.2734L19.2201 25.2647Z" fill="#6E224E"/>
</svg>
